# xmcd
#
# Track frame offsets: 
#        150
#        29125
#        53765
#        90279
#        124495
#        159850
#        188309
#        225838
#        259786
#        294590
#
# Disc length: 4379 seconds
#
# Revision: 0
# Processed by: cddbd v1.5.2PL0 Copyright (c) Steve Scherf et al.
# Submitted via: ExactAudioCopyFreeDBPlugin 1.0
#
DISCID=7711190a
DTITLE=Various Artist - 12'' Mix Compilation (Vinyl Rip) 1
DYEAR=1989
DGENRE=Rap
TTITLE0=Christopher Williams - Talk To Myself (Club Mix)
TTITLE1=Rescue Me (I'm Not Mad Remix)
TTITLE2=Guy - I Like (Extended Version)
TTITLE3=After7 - Don't Cha Think (Club Mix)
TTITLE4=New Edition - Crucial (Dance Remix)
TTITLE5=Z'Looke - Can U Read My Lips (Hips and Thigs Dub Mix)
TTITLE6=Sheena Easton - Days Like This (Extended Version)
TTITLE7=New Edition - If It Isn't Love (Club Mix)
TTITLE8=Babyface feat. Bobby Brown - Tender Lover (Extended Version)
TTITLE9=Troop - I'm Not Soupped (Extended Version)
EXTD=
EXTT0=
EXTT1=
EXTT2=
EXTT3=
EXTT4=
EXTT5=
EXTT6=
EXTT7=
EXTT8=
EXTT9=
PLAYORDER=
